0
SECTION
2
HEADER
9
$INSUNITS
70
4
9
$ACADVER
1
AC1014
9
$HANDSEED
5
FFFF
0
ENDSEC
0
SECTION
2
TABLES
0
TABLE
2
VPORT
5
8
100
AcDbSymbolTable
0
ENDTAB
0
TABLE
2
LTYPE
5
5
100
AcDbSymbolTable
0
LTYPE
5
14
100
AcDbSymbolTableRecord
100
AcDbLinetypeTableRecord
2
BYBLOCK
70
0
0
LTYPE
5
15
100
AcDbSymbolTableRecord
100
AcDbLinetypeTableRecord
2
BYLAYER
70
0
0
LTYPE
5
16
100
AcDbSymbolTableRecord
100
AcDbLinetypeTableRecord
2
DASHED
70
0
3
Dashed __ __ __ __ __ __ __ __ __ __ __ __ __ _
72
65
73
2
40
0.75
49
0.5
74
0
49
-0.25
74
0
0
ENDTAB
0
TABLE
2
LAYER
5
2
100
AcDbSymbolTable
70
2
0
LAYER
5
50
100
AcDbSymbolTableRecord
100
AcDbLayerTableRecord
2
0
70
0
62
7
6
CONTINUOUS
0
ENDTAB
0
TABLE
2
STYLE
5
3
100
AcDbSymbolTable
70
1
0
STYLE
5
11
100
AcDbSymbolTableRecord
100
AcDbTextStyleTableRecord
2
STANDARD
70
0
0
ENDTAB
0
TABLE
2
VIEW
5
6
100
AcDbSymbolTable
70
0
0
ENDTAB
0
TABLE
2
UCS
5
7
100
AcDbSymbolTable
70
0
0
ENDTAB
0
TABLE
2
APPID
5
9
100
AcDbSymbolTable
70
2
0
APPID
5
12
100
AcDbSymbolTableRecord
100
AcDbRegAppTableRecord
2
ACAD
70
0
0
ENDTAB
0
TABLE
2
DIMSTYLE
5
A
100
AcDbSymbolTable
70
1
0
ENDTAB
0
TABLE
2
BLOCK_RECORD
5
1
100
AcDbSymbolTable
70
1
0
BLOCK_RECORD
5
1F
100
AcDbSymbolTableRecord
100
AcDbBlockTableRecord
2
*MODEL_SPACE
0
BLOCK_RECORD
5
1B
100
AcDbSymbolTableRecord
100
AcDbBlockTableRecord
2
*PAPER_SPACE
0
ENDTAB
0
ENDSEC
0
SECTION
2
BLOCKS
0
BLOCK
5
20
100
AcDbEntity
100
AcDbBlockBegin
2
*MODEL_SPACE
0
ENDBLK
5
21
100
AcDbEntity
100
AcDbBlockEnd
0
BLOCK
5
1C
100
AcDbEntity
100
AcDbBlockBegin
2
*PAPER_SPACE
0
ENDBLK
5
1D
100
AcDbEntity
100
AcDbBlockEnd
0
ENDSEC
0
SECTION
2
ENTITIES
0
LINE
5
100
100
AcDbEntity
8
0
100
AcDbLine
10
178.0000025033948
20
69.999999999999986
30
-50
11
182.00000038161511
21
70.000000000000014
31
-50
0
LINE
5
101
100
AcDbEntity
8
0
100
AcDbLine
10
60
20
0
30
-50
11
188
21
0
31
-50
0
LINE
5
102
100
AcDbEntity
8
0
100
AcDbLine
10
153.00000187009573
20
157.00000000000003
30
-50
11
98.00000187009573
21
157.00000000000003
31
-50
0
ARC
5
103
100
AcDbEntity
8
0
100
AcDbCircle
10
153.00000187009573
20
162.00000000000003
30
-50
40
5
210
-0
220
0
230
1
100
AcDbArc
50
-90
51
90
0
LINE
5
104
100
AcDbEntity
8
0
100
AcDbLine
10
60
20
184.00000000000003
30
-50
11
0
21
109.50000000000001
31
-50
0
LINE
5
105
100
AcDbEntity
8
0
100
AcDbLine
10
163
20
174.00000000000003
30
-50
11
163
21
181
31
-50
0
ARC
5
106
100
AcDbEntity
8
0
100
AcDbCircle
10
98.00000187009573
20
162.00000000000003
30
-50
40
5
210
0
220
-0
230
1
100
AcDbArc
50
90
51
270
0
ARC
5
107
100
AcDbEntity
8
0
100
AcDbCircle
10
176.00000257790094
20
180.99999999999997
30
-50
40
3.0000000000000426
210
0
220
-0
230
1
100
AcDbArc
50
90
51
180
0
ARC
5
108
100
AcDbEntity
8
0
100
AcDbCircle
10
159.99999999999994
20
180.99999999999994
30
-50
40
3.0000000000000604
210
0
220
-0
230
1
100
AcDbArc
50
0
51
89.99999999999892
0
LINE
5
109
100
AcDbEntity
8
0
100
AcDbLine
10
298
20
112.00000000000001
30
-50
11
240
21
137.00000000000003
31
-50
0
LINE
5
110
100
AcDbEntity
8
0
100
AcDbLine
10
240
20
137.00000000000003
30
-50
11
188
21
184.00000000000003
31
-50
0
LINE
5
111
100
AcDbEntity
8
0
100
AcDbLine
10
175.00000038161514
20
52.999999999999979
30
-50
11
175.0000025033948
21
66.999999999999986
31
-50
0
LINE
5
112
100
AcDbEntity
8
0
100
AcDbLine
10
182.00000038161511
20
49.999999999999986
30
-50
11
178.00000038161514
21
49.999999999999972
31
-50
0
LINE
5
113
100
AcDbEntity
8
0
100
AcDbLine
10
185.00000038161514
20
67
30
-50
11
185.00000038161514
21
53
31
-50
0
LINE
5
114
100
AcDbEntity
8
0
100
AcDbLine
10
298
20
72.000000000000014
30
-50
11
298
21
112.00000000000001
31
-50
0
LINE
5
115
100
AcDbEntity
8
0
100
AcDbLine
10
98.00000187009573
20
167.00000000000003
30
-50
11
153.00000187009573
21
167.00000000000003
31
-50
0
LINE
5
116
100
AcDbEntity
8
0
100
AcDbLine
10
160
20
184
30
-50
11
91.000000000000014
21
184.00000000000003
31
-50
0
LINE
5
117
100
AcDbEntity
8
0
100
AcDbLine
10
173.00000257790089
20
181
30
-50
11
173.00000257790089
21
174.00000259280205
31
-50
0
ARC
5
118
100
AcDbEntity
8
0
100
AcDbCircle
10
182.00000038161508
20
66.999999999999986
30
-50
40
3.0000000000000426
210
0
220
-0
230
1
100
AcDbArc
50
0
51
89.99999999999946
0
ARC
5
119
100
AcDbEntity
8
0
100
AcDbCircle
10
91.000000000000057
20
180.99999999999997
30
-50
40
3.0000000000000426
210
0
220
0
230
1
100
AcDbArc
50
90.00000000000081
51
180
0
LINE
5
120
100
AcDbEntity
8
0
100
AcDbLine
10
188
20
184.00000000000003
30
-50
11
176.00000257790094
21
184.00000000000003
31
-50
0
LINE
5
121
100
AcDbEntity
8
0
100
AcDbLine
10
0
20
74.500000000000014
30
-50
11
60
21
0
31
-50
0
ARC
5
122
100
AcDbEntity
8
0
100
AcDbCircle
10
178.00000038161517
20
53
30
-50
40
3.0000000000000426
210
0
220
0
230
1
100
AcDbArc
50
180
51
269.99999999999943
0
ARC
5
123
100
AcDbEntity
8
0
100
AcDbCircle
10
182.00000038161508
20
53.000000000000014
30
-50
40
3.0000000000000338
210
-0
220
0
230
1
100
AcDbArc
50
270.00000000000051
51
360
0
LINE
5
124
100
AcDbEntity
8
0
100
AcDbLine
10
0
20
109.50000000000001
30
-50
11
0
21
74.500000000000014
31
-50
0
LINE
5
125
100
AcDbEntity
8
0
100
AcDbLine
10
88
20
181
30
-50
11
88
21
174.00000000000003
31
-50
0
ARC
5
126
100
AcDbEntity
8
0
100
AcDbCircle
10
83
20
174.00000000000003
30
-50
40
5
210
0
220
0
230
1
100
AcDbArc
50
-180
51
0
0
ARC
5
127
100
AcDbEntity
8
0
100
AcDbCircle
10
178.00000250339485
20
66.999999999999929
30
-50
40
3.0000000000000515
210
0
220
0
230
1
100
AcDbArc
50
90.000000000001094
51
180
0
ARC
5
128
100
AcDbEntity
8
0
100
AcDbCircle
10
168
20
174.00000000000003
30
-50
40
5
210
0
220
0
230
1
100
AcDbArc
50
-180
51
2.9698562612201411e-05
0
LINE
5
129
100
AcDbEntity
8
0
100
AcDbLine
10
188
20
0
30
-50
11
240
21
47
31
-50
0
LINE
5
130
100
AcDbEntity
8
0
100
AcDbLine
10
78
20
174.00000000000003
30
-50
11
78
21
181
31
-50
0
LINE
5
131
100
AcDbEntity
8
0
100
AcDbLine
10
240
20
47
30
-50
11
298
21
72.000000000000014
31
-50
0
LINE
5
132
100
AcDbEntity
8
0
100
AcDbLine
10
75.000000000000014
20
184.00000000000003
30
-50
11
60
21
184.00000000000003
31
-50
0
ARC
5
133
100
AcDbEntity
8
0
100
AcDbCircle
10
74.999999999999972
20
180.99999999999997
30
-50
40
3.0000000000000338
210
0
220
-0
230
1
100
AcDbArc
50
0
51
89.99999999999919
0
CIRCLE
5
134
100
AcDbEntity
8
0
100
AcDbCircle
10
159.00000187009573
20
107.00000000000003
30
-50
40
1.5000000000000036
210
0
220
0
230
1
0
CIRCLE
5
135
100
AcDbEntity
8
0
100
AcDbCircle
10
101.00000038161512
20
35
30
-50
40
2.5
210
0
220
0
230
1
0
CIRCLE
5
136
100
AcDbEntity
8
0
100
AcDbCircle
10
92.000001870095716
20
107.00000000000003
30
-50
40
1.5000000000000036
210
0
220
0
230
1
0
CIRCLE
5
137
100
AcDbEntity
8
0
100
AcDbCircle
10
78
20
10
30
-50
40
1.5000000000000036
210
0
220
0
230
1
0
CIRCLE
5
138
100
AcDbEntity
8
0
100
AcDbCircle
10
92.000001870095716
20
147.00000000000003
30
-50
40
1.5000000000000036
210
0
220
0
230
1
0
CIRCLE
5
139
100
AcDbEntity
8
0
100
AcDbCircle
10
101.00000038161512
20
75
30
-50
40
2.5
210
0
220
0
230
1
0
CIRCLE
5
140
100
AcDbEntity
8
0
100
AcDbCircle
10
168.00000038161514
20
75
30
-50
40
2.5
210
0
220
0
230
1
0
CIRCLE
5
141
100
AcDbEntity
8
0
100
AcDbCircle
10
243.85965004500315
20
112.85965004500319
30
-50
40
1.4999999999999858
210
0
220
0
230
1
0
CIRCLE
5
142
100
AcDbEntity
8
0
100
AcDbCircle
10
168.00000038161514
20
35
30
-50
40
2.5
210
0
220
0
230
1
0
CIRCLE
5
143
100
AcDbEntity
8
0
100
AcDbCircle
10
243.85965004500315
20
71.140349954996864
30
-50
40
1.4999999999999858
210
0
220
0
230
1
0
CIRCLE
5
144
100
AcDbEntity
8
0
100
AcDbCircle
10
202.14034995499679
20
112.85965004500318
30
-50
40
1.4999999999999858
210
0
220
0
230
1
0
CIRCLE
5
145
100
AcDbEntity
8
0
100
AcDbCircle
10
159.00000187009573
20
147.00000000000003
30
-50
40
1.4999999999999858
210
0
220
0
230
1
0
CIRCLE
5
146
100
AcDbEntity
8
0
100
AcDbCircle
10
38.481738938752407
20
46.000000000000007
30
-50
40
1.4999999999999991
210
0
220
0
230
1
0
CIRCLE
5
147
100
AcDbEntity
8
0
100
AcDbCircle
10
96.481738938752414
20
132
30
-50
40
1.5000000000000036
210
0
220
0
230
1
0
CIRCLE
5
148
100
AcDbEntity
8
0
100
AcDbCircle
10
202.14034995499679
20
71.14034995499685
30
-50
40
1.4999999999999858
210
0
220
0
230
1
0
CIRCLE
5
149
100
AcDbEntity
8
0
100
AcDbCircle
10
38.481738938752407
20
132
30
-50
40
1.4999999999999991
210
0
220
0
230
1
0
CIRCLE
5
150
100
AcDbEntity
8
0
100
AcDbCircle
10
96.4817389387524
20
46
30
-50
40
1.5000000000000036
210
0
220
0
230
1
0
CIRCLE
5
151
100
AcDbEntity
8
0
100
AcDbCircle
10
88
20
10
30
-50
40
1.4999999999999858
210
0
220
0
230
1
0
CIRCLE
5
152
100
AcDbEntity
8
0
100
AcDbCircle
10
171.625
20
10
30
-50
40
1.4999999999999858
210
0
220
0
230
1
0
CIRCLE
5
153
100
AcDbEntity
8
0
100
AcDbCircle
10
161.625
20
10
30
-50
40
1.4999999999999858
210
0
220
0
230
1
0
ENDSEC
0
SECTION
2
OBJECTS
0
DICTIONARY
5
C
100
AcDbDictionary
3
ACAD_GROUP
350
D
3
ACAD_MLINESTYLE
350
17
0
DICTIONARY
5
D
100
AcDbDictionary
0
DICTIONARY
5
1A
330
C
100
AcDbDictionary
0
DICTIONARY
5
17
100
AcDbDictionary
0
ENDSEC
0
EOF
